# xmcd CD database file
#
# Track frame offsets:
#	150
#	20407
#	38810
#	48949
#	65783
#	88461
#	103302
#	118915
#	141140
#	149604
#	172677
#
# Disc length: 2539 seconds
#
# Revision: 0
# Processed by: cddbd v1.5.2PL0 Copyright (c) Steve Scherf et al.
# Submitted via: CDex 1.51
#
DISCID=a409e90b
DTITLE=Heavy Manic Souls - Heavy Manic Souls
DYEAR=1900
DGENRE=Blues
TTITLE0=Change The Reality
TTITLE1=Juggernaut (Fury Road)
TTITLE2=The Lone Star State Song
TTITLE3=Rollerball
TTITLE4=Cigarette
TTITLE5=Head or Tails
TTITLE6=Escape From Earth
TTITLE7=Down In The Rain
TTITLE8=Badass Motherfucker
TTITLE9=Uncle Pirate Blues
TTITLE10=Heavy Foot, Cool Hand
EXTD=
EXTT0=
EXTT1=
EXTT2=
EXTT3=
EXTT4=
EXTT5=
EXTT6=
EXTT7=
EXTT8=
EXTT9=
EXTT10=
PLAYORDER=
